<svg width="500" height="500" viewBox="0 0 500 500" fill="none" xmlns="http://www.w3.org/2000/svg">
<rect width="500" height="500" fill="#F1EAF7"/>
<path d="M180.753 118.493L182.013 120.383H179.763C179.538 124.448 179.013 128.498 178.263 132.503L176.763 132.263C177.513 128.333 178.023 124.373 178.263 120.383H176.013L177.273 118.493C173.973 117.068 171.513 111.923 171.513 108.383C171.513 106.393 172.303 104.486 173.71 103.079C175.116 101.673 177.024 100.883 179.013 100.883C179.998 100.883 180.973 101.077 181.883 101.453C182.793 101.83 183.62 102.383 184.316 103.079C185.013 103.776 185.565 104.603 185.942 105.512C186.319 106.422 186.513 107.398 186.513 108.383C186.513 111.923 184.053 117.068 180.753 118.493Z" fill="black" fill-opacity="0.08"/>
<path d="M398.693 366.443L399.953 368.333H397.703C397.478 372.398 396.953 376.448 396.203 380.453L394.703 380.213C395.453 376.283 395.963 372.323 396.203 368.333H393.953L395.213 366.443C391.913 365.018 389.453 359.873 389.453 356.333C389.453 354.344 390.243 352.436 391.65 351.03C393.056 349.623 394.964 348.833 396.953 348.833C397.938 348.833 398.913 349.027 399.823 349.404C400.733 349.781 401.56 350.333 402.256 351.03C402.953 351.726 403.505 352.553 403.882 353.463C404.259 354.373 404.453 355.348 404.453 356.333C404.453 359.873 401.993 365.018 398.693 366.443Z" fill="black" fill-opacity="0.08"/>
<path d="M52.6145 97.7937H40.6145C40.0841 97.7937 39.5754 98.0044 39.2003 98.3795C38.8252 98.7546 38.6145 99.2633 38.6145 99.7937V111.794C38.6145 115.579 39.7575 119.09 42.1285 121.664C42.2435 121.789 42.3615 121.912 42.4825 122.032C42.7415 121.881 43.0425 121.794 43.3645 121.794C43.8145 121.794 44.2415 121.534 44.4615 121.138C44.1576 120.879 43.8698 120.602 43.5995 120.309C41.6375 118.179 40.6145 115.189 40.6145 111.794C40.6145 111.059 40.6625 110.344 40.7575 109.651L50.4815 99.9267C51.1889 99.8365 51.9014 99.7921 52.6145 99.7937C56.3985 99.7937 59.2185 100.96 61.1635 102.805C61.2295 102.798 61.2965 102.794 61.3645 102.794C62.0125 102.794 62.6145 102.253 62.6145 101.544C62.6145 101.506 62.6155 101.468 62.6185 101.43C60.2505 99.1407 56.8865 97.7937 52.6145 97.7937ZM40.6145 99.7937H43.0285L40.6145 102.208V99.7937ZM45.2005 99.7937H47.7865L40.6145 106.966V104.38L45.2005 99.7937ZM52.6145 125.794C50.0945 125.794 47.8905 125.325 46.0195 124.471C46.6181 124.07 47.1182 123.538 47.4825 122.917C48.9405 123.479 50.6475 123.794 52.6145 123.794C56.7125 123.794 59.6795 122.426 61.6295 120.309C62.221 119.664 62.728 118.946 63.1385 118.174C64.182 117.954 65.1416 117.443 65.9055 116.699C65.3295 118.562 64.3995 120.253 63.1005 121.664C60.7175 124.252 57.1855 125.794 52.6145 125.794Z" fill="black" fill-opacity="0.08"/>
<path d="M59.4785 109.523C59.8855 108.98 60.4185 108.536 61.0335 108.234C60.9475 108.108 60.853 107.988 60.7505 107.876C60.1765 107.246 59.3105 106.794 58.1145 106.794C56.9305 106.794 56.0675 107.225 55.4905 107.854C54.9425 108.45 54.7215 109.147 54.6335 109.604C54.6051 109.734 54.603 109.869 54.6274 110C54.6517 110.131 54.702 110.256 54.7754 110.367C54.8487 110.478 54.9435 110.574 55.0543 110.648C55.1651 110.722 55.2896 110.773 55.4205 110.799C55.5513 110.824 55.686 110.823 55.8164 110.795C55.9469 110.768 56.0705 110.715 56.1801 110.639C56.2897 110.563 56.3829 110.466 56.4545 110.353C56.526 110.241 56.5743 110.115 56.5965 109.984C56.6445 109.738 56.7545 109.434 56.9635 109.207C57.1435 109.011 57.4615 108.794 58.1145 108.794C58.7565 108.794 59.0835 109.016 59.2715 109.223C59.3575 109.316 59.4255 109.42 59.4785 109.523ZM66.4355 109.257C65.8185 108.581 65.0102 108.111 64.1185 107.907C63.9276 107.198 63.6725 106.508 63.3565 105.846C63.9783 105.556 64.5317 105.138 64.9805 104.619C65.7135 106.035 66.1955 107.602 66.4355 109.257ZM46.9635 109.206C46.7535 109.434 46.6435 109.738 46.5965 109.985C46.5458 110.245 46.3938 110.475 46.1738 110.623C45.9538 110.771 45.6839 110.826 45.4235 110.776C45.1631 110.725 44.9334 110.573 44.7851 110.353C44.6367 110.133 44.5818 109.863 44.6325 109.603C44.7215 109.147 44.9425 108.45 45.4905 107.854C46.0675 107.225 46.9305 106.794 48.1145 106.794C49.3095 106.794 50.1765 107.246 50.7505 107.876C51.2945 108.473 51.5205 109.168 51.6005 109.623C51.6459 109.884 51.5855 110.153 51.4328 110.37C51.28 110.587 51.0474 110.734 50.786 110.779C50.5246 110.825 50.2559 110.764 50.0391 110.611C49.8222 110.459 49.6749 110.226 49.6295 109.965C49.5795 109.69 49.4558 109.433 49.2715 109.223C49.0845 109.016 48.7565 108.794 48.1145 108.794C47.4615 108.794 47.1425 109.011 46.9635 109.206ZM62.6145 99.7937C62.8797 99.7937 63.1341 99.6883 63.3216 99.5008C63.5091 99.3133 63.6145 99.0589 63.6145 98.7937C63.6145 98.5285 63.5091 98.2741 63.3216 98.0866C63.1341 97.8991 62.8797 97.7937 62.6145 97.7937C62.3493 97.7937 62.0949 97.8991 61.9074 98.0866C61.7199 98.2741 61.6145 98.5285 61.6145 98.7937C61.6145 99.0589 61.7199 99.3133 61.9074 99.5008C62.0949 99.6883 62.3493 99.7937 62.6145 99.7937ZM64.3645 100.794C64.5634 100.794 64.7542 100.873 64.8948 101.013C65.0355 101.154 65.1145 101.345 65.1145 101.544C65.1145 103.742 63.2825 105.294 61.3645 105.294C61.1656 105.294 60.9748 105.215 60.8342 105.074C60.6935 104.933 60.6145 104.743 60.6145 104.544C60.6145 104.345 60.6935 104.154 60.8342 104.013C60.9748 103.873 61.1656 103.794 61.3645 103.794C62.5235 103.794 63.6145 102.846 63.6145 101.544C63.6145 101.345 63.6935 101.154 63.8342 101.013C63.9748 100.873 64.1656 100.794 64.3645 100.794ZM46.3645 119.794C46.5634 119.794 46.7542 119.873 46.8948 120.013C47.0355 120.154 47.1145 120.345 47.1145 120.544C47.1145 122.742 45.2825 124.294 43.3645 124.294C43.1656 124.294 42.9748 124.215 42.8342 124.074C42.6935 123.933 42.6145 123.743 42.6145 123.544C42.6145 123.345 42.6935 123.154 42.8342 123.013C42.9748 122.873 43.1656 122.794 43.3645 122.794C44.5235 122.794 45.6145 121.846 45.6145 120.544C45.6145 120.345 45.6935 120.154 45.8342 120.013C45.9748 119.873 46.1656 119.794 46.3645 119.794ZM63.6145 124.794C63.8797 124.794 64.1341 124.688 64.3216 124.501C64.5091 124.313 64.6145 124.059 64.6145 123.794C64.6145 123.528 64.5091 123.274 64.3216 123.087C64.1341 122.899 63.8797 122.794 63.6145 122.794C63.3493 122.794 63.0949 122.899 62.9074 123.087C62.7199 123.274 62.6145 123.528 62.6145 123.794C62.6145 124.059 62.7199 124.313 62.9074 124.501C63.0949 124.688 63.3493 124.794 63.6145 124.794ZM46.6145 115.794C46.6145 116.059 46.5091 116.313 46.3216 116.501C46.1341 116.688 45.8797 116.794 45.6145 116.794C45.3493 116.794 45.0949 116.688 44.9074 116.501C44.7199 116.313 44.6145 116.059 44.6145 115.794C44.6145 115.528 44.7199 115.274 44.9074 115.087C45.0949 114.899 45.3493 114.794 45.6145 114.794C45.8797 114.794 46.1341 114.899 46.3216 115.087C46.5091 115.274 46.6145 115.528 46.6145 115.794ZM62.9355 108.794C62.4994 108.794 62.0675 108.88 61.6646 109.046C61.2617 109.213 60.8956 109.458 60.5872 109.766C60.2788 110.075 60.0342 110.441 59.8673 110.844C59.7004 111.247 59.6145 111.679 59.6145 112.115V112.544C59.6145 112.839 59.6727 113.132 59.7858 113.405C59.8988 113.678 60.0646 113.926 60.2735 114.135C60.4824 114.344 60.7305 114.509 61.0035 114.622C61.2764 114.736 61.569 114.794 61.8645 114.794C62.3286 114.794 62.7737 114.609 63.1019 114.281C63.4301 113.953 63.6145 113.508 63.6145 113.044V112.544C63.6145 112.345 63.5355 112.154 63.3948 112.013C63.2542 111.873 63.0634 111.794 62.8645 111.794C62.6656 111.794 62.4748 111.873 62.3342 112.013C62.1935 112.154 62.1145 112.345 62.1145 112.544V113.044C62.1145 113.11 62.0882 113.174 62.0413 113.22C61.9944 113.267 61.9308 113.294 61.8645 113.294C61.6656 113.294 61.4748 113.215 61.3342 113.074C61.1935 112.933 61.1145 112.743 61.1145 112.544V112.115C61.1145 111.109 61.9305 110.294 62.9355 110.294H63.1145C63.6449 110.294 64.1536 110.504 64.5287 110.879C64.9038 111.255 65.1145 111.763 65.1145 112.294V112.655C65.1145 113.487 64.7838 114.286 64.1951 114.874C63.6064 115.463 62.808 115.794 61.9755 115.794H56.7425C56.8266 115.425 56.8265 115.041 56.7421 114.672C56.6578 114.303 56.4913 113.958 56.2552 113.662C56.019 113.366 55.7192 113.127 55.378 112.963C55.0369 112.799 54.6631 112.714 54.2845 112.714C54.0193 112.714 53.7649 112.819 53.5774 113.007C53.3899 113.194 53.2845 113.448 53.2845 113.714C53.2845 113.979 53.3899 114.233 53.5774 114.421C53.7649 114.608 54.0193 114.714 54.2845 114.714C54.3528 114.714 54.4204 114.727 54.4835 114.753C54.5466 114.779 54.6039 114.818 54.6522 114.866C54.7005 114.914 54.7388 114.972 54.7649 115.035C54.7911 115.098 54.8045 115.165 54.8045 115.234C54.8045 115.302 54.7911 115.37 54.7649 115.433C54.7388 115.496 54.7005 115.553 54.6522 115.601C54.6039 115.65 54.5466 115.688 54.4835 115.714C54.4204 115.74 54.3528 115.754 54.2845 115.754C54.0193 115.754 53.7649 115.859 53.5774 116.047C53.3899 116.234 53.2845 116.488 53.2845 116.754C53.2845 117.019 53.3899 117.273 53.5774 117.461C53.7649 117.648 54.0193 117.754 54.2845 117.754C54.4224 117.754 54.5547 117.808 54.6522 117.906C54.7497 118.004 54.8045 118.136 54.8045 118.274C54.8045 118.412 54.7497 118.544 54.6522 118.641C54.5547 118.739 54.4224 118.794 54.2845 118.794C54.0193 118.794 53.7649 118.899 53.5774 119.087C53.3899 119.274 53.2845 119.528 53.2845 119.794C53.2845 120.059 53.3899 120.313 53.5774 120.501C53.7649 120.688 54.0193 120.794 54.2845 120.794C54.7004 120.794 55.1098 120.691 55.4763 120.494C55.8427 120.298 56.1549 120.013 56.3848 119.667C56.6147 119.32 56.7552 118.922 56.7939 118.508C56.8326 118.094 56.7682 117.677 56.6065 117.294H61.9765C63.2067 117.293 64.3864 116.805 65.2561 115.935C66.1259 115.065 66.6145 113.885 66.6145 112.655V112.294C66.6145 111.365 66.2458 110.475 65.5894 109.819C64.933 109.162 64.0428 108.794 63.1145 108.794H62.9355Z" fill="black" fill-opacity="0.08"/>
<path d="M168.513 443.213H156.513C155.983 443.213 155.474 443.424 155.099 443.799C154.724 444.174 154.513 444.683 154.513 445.213V457.213C154.513 460.998 155.656 464.509 158.027 467.083C158.142 467.208 158.26 467.331 158.381 467.451C158.64 467.3 158.941 467.213 159.263 467.213C159.713 467.213 160.14 466.953 160.36 466.557C160.056 466.299 159.768 466.022 159.498 465.728C157.536 463.598 156.513 460.608 156.513 457.213C156.513 456.478 156.561 455.763 156.656 455.07L166.38 445.346C167.087 445.256 167.8 445.211 168.513 445.213C172.297 445.213 175.117 446.379 177.062 448.224C177.128 448.217 177.195 448.213 177.263 448.213C177.911 448.213 178.513 447.672 178.513 446.963C178.513 446.925 178.514 446.887 178.517 446.849C176.149 444.56 172.785 443.213 168.513 443.213ZM156.513 445.213H158.927L156.513 447.627V445.213ZM161.099 445.213H163.685L156.513 452.385V449.799L161.099 445.213ZM168.513 471.213C165.993 471.213 163.789 470.744 161.918 469.89C162.517 469.489 163.017 468.958 163.381 468.336C164.839 468.898 166.546 469.213 168.513 469.213C172.611 469.213 175.578 467.845 177.528 465.728C178.12 465.083 178.627 464.366 179.037 463.593C180.081 463.374 181.04 462.862 181.804 462.118C181.228 463.981 180.298 465.672 178.999 467.083C176.616 469.671 173.084 471.213 168.513 471.213Z" fill="black" fill-opacity="0.08"/>
<path d="M175.377 454.942C175.784 454.399 176.317 453.955 176.932 453.653C176.846 453.527 176.752 453.408 176.649 453.295C176.075 452.665 175.209 452.213 174.013 452.213C172.829 452.213 171.966 452.644 171.389 453.273C170.841 453.869 170.62 454.566 170.532 455.023C170.504 455.153 170.502 455.288 170.526 455.419C170.55 455.55 170.601 455.675 170.674 455.786C170.747 455.898 170.842 455.993 170.953 456.067C171.064 456.142 171.188 456.193 171.319 456.218C171.45 456.243 171.585 456.242 171.715 456.215C171.845 456.187 171.969 456.134 172.079 456.058C172.188 455.982 172.282 455.885 172.353 455.773C172.425 455.66 172.473 455.535 172.495 455.403C172.543 455.157 172.653 454.853 172.862 454.626C173.042 454.43 173.36 454.213 174.013 454.213C174.655 454.213 174.982 454.435 175.17 454.642C175.256 454.735 175.324 454.839 175.377 454.942ZM182.334 454.676C181.717 454.001 180.909 453.53 180.017 453.326C179.826 452.617 179.571 451.928 179.255 451.265C179.877 450.975 180.43 450.557 180.879 450.038C181.612 451.454 182.094 453.021 182.334 454.676ZM162.862 454.625C162.652 454.853 162.542 455.157 162.495 455.404C162.444 455.665 162.292 455.894 162.072 456.043C161.852 456.191 161.583 456.246 161.322 456.195C161.062 456.144 160.832 455.992 160.684 455.772C160.535 455.552 160.48 455.283 160.531 455.022C160.62 454.566 160.841 453.869 161.389 453.273C161.966 452.644 162.829 452.213 164.013 452.213C165.208 452.213 166.075 452.665 166.649 453.295C167.193 453.892 167.419 454.587 167.499 455.042C167.544 455.304 167.484 455.572 167.331 455.789C167.179 456.006 166.946 456.153 166.685 456.199C166.423 456.244 166.155 456.184 165.938 456.031C165.721 455.878 165.573 455.646 165.528 455.384C165.478 455.109 165.354 454.853 165.17 454.642C164.983 454.435 164.655 454.213 164.013 454.213C163.36 454.213 163.041 454.43 162.862 454.625ZM178.513 445.213C178.778 445.213 179.033 445.108 179.22 444.92C179.408 444.733 179.513 444.478 179.513 444.213C179.513 443.948 179.408 443.694 179.22 443.506C179.033 443.318 178.778 443.213 178.513 443.213C178.248 443.213 177.993 443.318 177.806 443.506C177.618 443.694 177.513 443.948 177.513 444.213C177.513 444.478 177.618 444.733 177.806 444.92C177.993 445.108 178.248 445.213 178.513 445.213ZM180.263 446.213C180.462 446.213 180.653 446.292 180.793 446.433C180.934 446.573 181.013 446.764 181.013 446.963C181.013 449.161 179.181 450.713 177.263 450.713C177.064 450.713 176.873 450.634 176.733 450.493C176.592 450.353 176.513 450.162 176.513 449.963C176.513 449.764 176.592 449.573 176.733 449.433C176.873 449.292 177.064 449.213 177.263 449.213C178.422 449.213 179.513 448.265 179.513 446.963C179.513 446.764 179.592 446.573 179.733 446.433C179.873 446.292 180.064 446.213 180.263 446.213ZM162.263 465.213C162.462 465.213 162.653 465.292 162.793 465.433C162.934 465.573 163.013 465.764 163.013 465.963C163.013 468.161 161.181 469.713 159.263 469.713C159.064 469.713 158.873 469.634 158.733 469.493C158.592 469.353 158.513 469.162 158.513 468.963C158.513 468.764 158.592 468.573 158.733 468.433C158.873 468.292 159.064 468.213 159.263 468.213C160.422 468.213 161.513 467.265 161.513 465.963C161.513 465.764 161.592 465.573 161.733 465.433C161.873 465.292 162.064 465.213 162.263 465.213ZM179.513 470.213C179.778 470.213 180.033 470.108 180.22 469.92C180.408 469.733 180.513 469.478 180.513 469.213C180.513 468.948 180.408 468.694 180.22 468.506C180.033 468.318 179.778 468.213 179.513 468.213C179.248 468.213 178.993 468.318 178.806 468.506C178.618 468.694 178.513 468.948 178.513 469.213C178.513 469.478 178.618 469.733 178.806 469.92C178.993 470.108 179.248 470.213 179.513 470.213ZM162.513 461.213C162.513 461.478 162.408 461.733 162.22 461.92C162.033 462.108 161.778 462.213 161.513 462.213C161.248 462.213 160.993 462.108 160.806 461.92C160.618 461.733 160.513 461.478 160.513 461.213C160.513 460.948 160.618 460.694 160.806 460.506C160.993 460.318 161.248 460.213 161.513 460.213C161.778 460.213 162.033 460.318 162.22 460.506C162.408 460.694 162.513 460.948 162.513 461.213ZM178.834 454.213C178.398 454.213 177.966 454.299 177.563 454.466C177.16 454.633 176.794 454.877 176.486 455.186C176.177 455.494 175.933 455.86 175.766 456.263C175.599 456.666 175.513 457.098 175.513 457.534V457.963C175.513 458.259 175.571 458.551 175.684 458.824C175.797 459.097 175.963 459.345 176.172 459.554C176.381 459.763 176.629 459.929 176.902 460.042C177.175 460.155 177.468 460.213 177.763 460.213C178.227 460.213 178.672 460.029 179 459.701C179.329 459.372 179.513 458.927 179.513 458.463V457.963C179.513 457.764 179.434 457.573 179.293 457.433C179.153 457.292 178.962 457.213 178.763 457.213C178.564 457.213 178.373 457.292 178.233 457.433C178.092 457.573 178.013 457.764 178.013 457.963V458.463C178.013 458.529 177.987 458.593 177.94 458.64C177.893 458.687 177.829 458.713 177.763 458.713C177.564 458.713 177.373 458.634 177.233 458.493C177.092 458.353 177.013 458.162 177.013 457.963V457.534C177.013 456.528 177.829 455.713 178.834 455.713H179.013C179.543 455.713 180.052 455.924 180.427 456.299C180.802 456.674 181.013 457.183 181.013 457.713V458.074C181.013 458.907 180.682 459.705 180.094 460.294C179.505 460.882 178.707 461.213 177.874 461.213H172.641C172.725 460.844 172.725 460.461 172.641 460.092C172.556 459.722 172.39 459.377 172.154 459.081C171.918 458.785 171.618 458.546 171.277 458.382C170.935 458.218 170.562 458.133 170.183 458.133C169.918 458.133 169.663 458.238 169.476 458.426C169.288 458.614 169.183 458.868 169.183 459.133C169.183 459.398 169.288 459.653 169.476 459.84C169.663 460.028 169.918 460.133 170.183 460.133C170.251 460.133 170.319 460.147 170.382 460.173C170.445 460.199 170.502 460.237 170.551 460.285C170.599 460.334 170.637 460.391 170.663 460.454C170.69 460.517 170.703 460.585 170.703 460.653C170.703 460.721 170.69 460.789 170.663 460.852C170.637 460.915 170.599 460.973 170.551 461.021C170.502 461.069 170.445 461.107 170.382 461.134C170.319 461.16 170.251 461.173 170.183 461.173C169.918 461.173 169.663 461.278 169.476 461.466C169.288 461.654 169.183 461.908 169.183 462.173C169.183 462.438 169.288 462.693 169.476 462.88C169.663 463.068 169.918 463.173 170.183 463.173C170.321 463.173 170.453 463.228 170.551 463.325C170.648 463.423 170.703 463.555 170.703 463.693C170.703 463.831 170.648 463.963 170.551 464.061C170.453 464.158 170.321 464.213 170.183 464.213C169.918 464.213 169.663 464.318 169.476 464.506C169.288 464.694 169.183 464.948 169.183 465.213C169.183 465.478 169.288 465.733 169.476 465.92C169.663 466.108 169.918 466.213 170.183 466.213C170.599 466.213 171.008 466.11 171.375 465.914C171.741 465.717 172.053 465.433 172.283 465.086C172.513 464.74 172.654 464.342 172.692 463.928C172.731 463.513 172.667 463.096 172.505 462.713H177.875C179.105 462.713 180.285 462.224 181.155 461.354C182.024 460.484 182.513 459.304 182.513 458.074V457.713C182.513 456.785 182.144 455.895 181.488 455.238C180.832 454.582 179.941 454.213 179.013 454.213H178.834Z" fill="black" fill-opacity="0.08"/>
<path d="M312.862 105.503H300.862C300.331 105.503 299.823 105.713 299.448 106.088C299.073 106.463 298.862 106.972 298.862 107.503V119.503C298.862 123.288 300.005 126.799 302.376 129.373C302.491 129.498 302.609 129.621 302.73 129.741C302.989 129.59 303.29 129.503 303.612 129.503C304.062 129.503 304.489 129.243 304.709 128.847C304.405 128.588 304.117 128.311 303.847 128.018C301.885 125.888 300.862 122.898 300.862 119.503C300.862 118.768 300.91 118.053 301.005 117.36L310.729 107.636C311.436 107.545 312.149 107.501 312.862 107.503C316.646 107.503 319.466 108.669 321.411 110.514C321.477 110.507 321.544 110.503 321.612 110.503C322.26 110.503 322.862 109.962 322.862 109.253C322.862 109.215 322.863 109.177 322.866 109.139C320.498 106.85 317.134 105.503 312.862 105.503ZM300.862 107.503H303.276L300.862 109.917V107.503ZM305.448 107.503H308.034L300.862 114.675V112.089L305.448 107.503ZM312.862 133.503C310.342 133.503 308.138 133.034 306.267 132.18C306.865 131.778 307.366 131.247 307.73 130.626C309.188 131.188 310.895 131.503 312.862 131.503C316.96 131.503 319.927 130.135 321.877 128.018C322.468 127.373 322.975 126.655 323.386 125.883C324.429 125.663 325.389 125.151 326.153 124.408C325.577 126.271 324.647 127.962 323.348 129.373C320.965 131.961 317.433 133.503 312.862 133.503Z" fill="black" fill-opacity="0.08"/>
<path d="M319.726 117.232C320.133 116.689 320.666 116.245 321.281 115.943C321.195 115.817 321.1 115.697 320.998 115.585C320.424 114.955 319.558 114.503 318.362 114.503C317.178 114.503 316.315 114.934 315.738 115.563C315.19 116.159 314.969 116.856 314.881 117.313C314.852 117.443 314.85 117.577 314.875 117.708C314.899 117.84 314.949 117.964 315.023 118.076C315.096 118.187 315.191 118.283 315.302 118.357C315.412 118.431 315.537 118.482 315.668 118.508C315.799 118.533 315.933 118.532 316.064 118.504C316.194 118.477 316.318 118.424 316.427 118.348C316.537 118.272 316.63 118.175 316.702 118.062C316.773 117.95 316.822 117.824 316.844 117.693C316.892 117.447 317.002 117.143 317.211 116.916C317.391 116.72 317.709 116.503 318.362 116.503C319.004 116.503 319.331 116.725 319.519 116.932C319.605 117.025 319.673 117.129 319.726 117.232ZM326.683 116.966C326.066 116.29 325.257 115.819 324.366 115.616C324.175 114.907 323.92 114.217 323.604 113.555C324.226 113.265 324.779 112.846 325.228 112.328C325.961 113.744 326.443 115.311 326.683 116.966ZM307.211 116.915C307.001 117.143 306.891 117.447 306.844 117.694C306.793 117.954 306.641 118.184 306.421 118.332C306.201 118.48 305.931 118.535 305.671 118.485C305.41 118.434 305.181 118.282 305.032 118.062C304.884 117.842 304.829 117.572 304.88 117.312C304.969 116.856 305.19 116.159 305.738 115.563C306.315 114.934 307.178 114.503 308.362 114.503C309.557 114.503 310.424 114.955 310.998 115.585C311.542 116.182 311.768 116.877 311.848 117.332C311.893 117.593 311.833 117.862 311.68 118.079C311.527 118.295 311.295 118.443 311.033 118.488C310.772 118.533 310.503 118.473 310.286 118.32C310.069 118.168 309.922 117.935 309.877 117.674C309.827 117.398 309.703 117.142 309.519 116.932C309.332 116.725 309.004 116.503 308.362 116.503C307.709 116.503 307.39 116.72 307.211 116.915ZM322.862 107.503C323.127 107.503 323.381 107.397 323.569 107.21C323.756 107.022 323.862 106.768 323.862 106.503C323.862 106.237 323.756 105.983 323.569 105.795C323.381 105.608 323.127 105.503 322.862 105.503C322.597 105.503 322.342 105.608 322.155 105.795C321.967 105.983 321.862 106.237 321.862 106.503C321.862 106.768 321.967 107.022 322.155 107.21C322.342 107.397 322.597 107.503 322.862 107.503ZM324.612 108.503C324.811 108.503 325.001 108.582 325.142 108.722C325.283 108.863 325.362 109.054 325.362 109.253C325.362 111.451 323.53 113.003 321.612 113.003C321.413 113.003 321.222 112.924 321.081 112.783C320.941 112.642 320.862 112.451 320.862 112.253C320.862 112.054 320.941 111.863 321.081 111.722C321.222 111.582 321.413 111.503 321.612 111.503C322.771 111.503 323.862 110.555 323.862 109.253C323.862 109.054 323.941 108.863 324.081 108.722C324.222 108.582 324.413 108.503 324.612 108.503ZM306.612 127.503C306.811 127.503 307.001 127.582 307.142 127.722C307.283 127.863 307.362 128.054 307.362 128.253C307.362 130.451 305.53 132.003 303.612 132.003C303.413 132.003 303.222 131.924 303.081 131.783C302.941 131.642 302.862 131.451 302.862 131.253C302.862 131.054 302.941 130.863 303.081 130.722C303.222 130.582 303.413 130.503 303.612 130.503C304.771 130.503 305.862 129.555 305.862 128.253C305.862 128.054 305.941 127.863 306.081 127.722C306.222 127.582 306.413 127.503 306.612 127.503ZM323.862 132.503C324.127 132.503 324.381 132.397 324.569 132.21C324.756 132.022 324.862 131.768 324.862 131.503C324.862 131.237 324.756 130.983 324.569 130.795C324.381 130.608 324.127 130.503 323.862 130.503C323.597 130.503 323.342 130.608 323.155 130.795C322.967 130.983 322.862 131.237 322.862 131.503C322.862 131.768 322.967 132.022 323.155 132.21C323.342 132.397 323.597 132.503 323.862 132.503ZM306.862 123.503C306.862 123.768 306.756 124.022 306.569 124.21C306.381 124.397 306.127 124.503 305.862 124.503C305.597 124.503 305.342 124.397 305.155 124.21C304.967 124.022 304.862 123.768 304.862 123.503C304.862 123.237 304.967 122.983 305.155 122.795C305.342 122.608 305.597 122.503 305.862 122.503C306.127 122.503 306.381 122.608 306.569 122.795C306.756 122.983 306.862 123.237 306.862 123.503ZM323.183 116.503C322.747 116.503 322.315 116.588 321.912 116.755C321.509 116.922 321.143 117.167 320.835 117.475C320.526 117.784 320.282 118.15 320.115 118.553C319.948 118.956 319.862 119.387 319.862 119.824V120.253C319.862 120.548 319.92 120.841 320.033 121.114C320.146 121.387 320.312 121.635 320.521 121.844C320.73 122.052 320.978 122.218 321.251 122.331C321.524 122.444 321.816 122.503 322.112 122.503C322.576 122.503 323.021 122.318 323.349 121.99C323.677 121.662 323.862 121.217 323.862 120.753V120.253C323.862 120.054 323.783 119.863 323.642 119.722C323.501 119.582 323.311 119.503 323.112 119.503C322.913 119.503 322.722 119.582 322.581 119.722C322.441 119.863 322.362 120.054 322.362 120.253V120.753C322.362 120.819 322.335 120.882 322.289 120.929C322.242 120.976 322.178 121.003 322.112 121.003C321.913 121.003 321.722 120.924 321.581 120.783C321.441 120.642 321.362 120.451 321.362 120.253V119.824C321.362 118.818 322.178 118.003 323.183 118.003H323.362C323.892 118.003 324.401 118.213 324.776 118.588C325.151 118.963 325.362 119.472 325.362 120.003V120.364C325.362 121.196 325.031 121.994 324.442 122.583C323.854 123.172 323.055 123.503 322.223 123.503H316.99C317.074 123.133 317.074 122.75 316.989 122.381C316.905 122.012 316.739 121.667 316.502 121.371C316.266 121.075 315.967 120.836 315.625 120.672C315.284 120.508 314.91 120.422 314.532 120.423C314.267 120.423 314.012 120.528 313.825 120.715C313.637 120.903 313.532 121.157 313.532 121.423C313.532 121.688 313.637 121.942 313.825 122.13C314.012 122.317 314.267 122.423 314.532 122.423C314.6 122.423 314.668 122.436 314.731 122.462C314.794 122.488 314.851 122.527 314.9 122.575C314.948 122.623 314.986 122.68 315.012 122.744C315.038 122.807 315.052 122.874 315.052 122.943C315.052 123.011 315.038 123.078 315.012 123.142C314.986 123.205 314.948 123.262 314.9 123.31C314.851 123.359 314.794 123.397 314.731 123.423C314.668 123.449 314.6 123.463 314.532 123.463C314.267 123.463 314.012 123.568 313.825 123.755C313.637 123.943 313.532 124.197 313.532 124.463C313.532 124.728 313.637 124.982 313.825 125.17C314.012 125.357 314.267 125.463 314.532 125.463C314.67 125.463 314.802 125.517 314.9 125.615C314.997 125.712 315.052 125.845 315.052 125.983C315.052 126.12 314.997 126.253 314.9 126.35C314.802 126.448 314.67 126.503 314.532 126.503C314.267 126.503 314.012 126.608 313.825 126.795C313.637 126.983 313.532 127.237 313.532 127.503C313.532 127.768 313.637 128.022 313.825 128.21C314.012 128.397 314.267 128.503 314.532 128.503C314.948 128.503 315.357 128.4 315.724 128.203C316.09 128.007 316.402 127.722 316.632 127.376C316.862 127.029 317.003 126.631 317.041 126.217C317.08 125.803 317.016 125.386 316.854 125.003H322.224C323.454 125.002 324.634 124.513 325.503 123.643C326.373 122.774 326.862 121.594 326.862 120.364V120.003C326.862 119.074 326.493 118.184 325.837 117.528C325.18 116.871 324.29 116.503 323.362 116.503H323.183Z" fill="black" fill-opacity="0.08"/>
<path fill-rule="evenodd" clip-rule="evenodd" d="M183.888 340.153C183.888 343.17 182.69 346.063 180.556 348.196C178.423 350.33 175.53 351.528 172.513 351.528C169.496 351.528 166.603 350.33 164.47 348.196C162.336 346.063 161.138 343.17 161.138 340.153C161.138 337.136 162.336 334.243 164.47 332.11C166.603 329.977 169.496 328.778 172.513 328.778C175.53 328.778 178.423 329.977 180.556 332.11C182.69 334.243 183.888 337.136 183.888 340.153ZM186.513 340.153C186.513 343.866 185.038 347.427 182.413 350.053C179.787 352.678 176.226 354.153 172.513 354.153C168.8 354.153 165.239 352.678 162.614 350.053C159.988 347.427 158.513 343.866 158.513 340.153C158.513 336.44 159.988 332.879 162.614 330.254C165.239 327.628 168.8 326.153 172.513 326.153C176.226 326.153 179.787 327.628 182.413 330.254C185.038 332.879 186.513 336.44 186.513 340.153ZM167.704 334.378C168.307 334.031 169.023 333.938 169.694 334.118C170.366 334.299 170.939 334.738 171.286 335.341C171.401 335.542 171.431 335.779 171.37 336.002C171.31 336.225 171.163 336.415 170.963 336.531C170.763 336.646 170.525 336.678 170.302 336.619C170.079 336.56 169.888 336.415 169.771 336.216C169.694 336.083 169.584 335.973 169.451 335.896C169.318 335.819 169.168 335.779 169.014 335.779C168.861 335.779 168.711 335.819 168.578 335.895C168.445 335.971 168.334 336.081 168.257 336.214C168.141 336.415 167.949 336.561 167.725 336.62C167.5 336.68 167.262 336.648 167.061 336.532C166.86 336.415 166.714 336.224 166.654 335.999C166.595 335.775 166.627 335.536 166.743 335.335C166.975 334.937 167.305 334.607 167.704 334.378ZM172.513 347.153C174.37 347.153 176.15 346.416 177.463 345.103C178.776 343.79 179.513 342.01 179.513 340.153H165.513C165.513 342.01 166.251 343.79 167.563 345.103C168.876 346.416 170.657 347.153 172.513 347.153ZM174.704 334.378C175.307 334.031 176.023 333.938 176.694 334.118C177.366 334.299 177.939 334.738 178.286 335.341C178.345 335.44 178.383 335.55 178.398 335.665C178.414 335.779 178.407 335.895 178.377 336.007C178.348 336.118 178.297 336.223 178.227 336.315C178.156 336.406 178.069 336.483 177.969 336.541C177.869 336.599 177.759 336.636 177.644 336.651C177.53 336.666 177.414 336.658 177.302 336.628C177.191 336.597 177.087 336.545 176.995 336.475C176.904 336.404 176.828 336.316 176.771 336.216C176.694 336.083 176.584 335.973 176.451 335.896C176.318 335.819 176.168 335.779 176.014 335.779C175.861 335.779 175.711 335.819 175.578 335.895C175.445 335.971 175.334 336.081 175.257 336.214C175.141 336.415 174.949 336.561 174.725 336.62C174.5 336.68 174.262 336.648 174.061 336.532C173.86 336.415 173.714 336.224 173.654 335.999C173.595 335.775 173.627 335.536 173.743 335.335C173.975 334.937 174.307 334.607 174.706 334.378H174.704Z" fill="black" fill-opacity="0.08"/>
<path fill-rule="evenodd" clip-rule="evenodd" d="M242.853 60.2346C242.853 63.2515 241.655 66.1447 239.521 68.278C237.388 70.4112 234.495 71.6096 231.478 71.6096C228.461 71.6096 225.568 70.4112 223.435 68.278C221.301 66.1447 220.103 63.2515 220.103 60.2346C220.103 57.2178 221.301 54.3245 223.435 52.1913C225.568 50.0581 228.461 48.8596 231.478 48.8596C234.495 48.8596 237.388 50.0581 239.521 52.1913C241.655 54.3245 242.853 57.2178 242.853 60.2346ZM245.478 60.2346C245.478 63.9477 244.003 67.5086 241.377 70.1341C238.752 72.7596 235.191 74.2346 231.478 74.2346C227.765 74.2346 224.204 72.7596 221.578 70.1341C218.953 67.5086 217.478 63.9477 217.478 60.2346C217.478 56.5216 218.953 52.9606 221.578 50.3351C224.204 47.7096 227.765 46.2346 231.478 46.2346C235.191 46.2346 238.752 47.7096 241.377 50.3351C244.003 52.9606 245.478 56.5216 245.478 60.2346ZM226.669 54.4596C227.272 54.1128 227.988 54.0194 228.659 54.1998C229.331 54.3803 229.903 54.8199 230.251 55.4221C230.365 55.623 230.396 55.8609 230.335 56.0839C230.274 56.3068 230.128 56.4968 229.928 56.6124C229.728 56.7279 229.49 56.7596 229.267 56.7005C229.044 56.6415 228.853 56.4964 228.736 56.2971C228.659 56.1644 228.549 56.0542 228.416 55.9776C228.283 55.9009 228.133 55.8605 227.979 55.8603C227.826 55.8601 227.675 55.9002 227.542 55.9766C227.41 56.0529 227.299 56.1629 227.222 56.2954C227.105 56.4961 226.914 56.6423 226.69 56.7019C226.465 56.7615 226.227 56.7295 226.026 56.613C225.825 56.4965 225.679 56.305 225.619 56.0807C225.56 55.8564 225.592 55.6176 225.708 55.4169C225.94 55.0189 226.27 54.6888 226.669 54.4596ZM231.478 67.2346C233.334 67.2346 235.115 66.4971 236.428 65.1844C237.74 63.8716 238.478 62.0911 238.478 60.2346H224.478C224.478 62.0911 225.215 63.8716 226.528 65.1844C227.841 66.4971 229.621 67.2346 231.478 67.2346ZM233.669 54.4596C234.272 54.1128 234.988 54.0194 235.659 54.1998C236.331 54.3803 236.903 54.8199 237.251 55.4221C237.31 55.5217 237.348 55.6318 237.363 55.7461C237.379 55.8604 237.372 55.9767 237.342 56.0883C237.313 56.1999 237.262 56.3045 237.191 56.3962C237.121 56.4878 237.034 56.5647 236.934 56.6224C236.834 56.6801 236.724 56.7175 236.609 56.7323C236.495 56.7472 236.378 56.7393 236.267 56.7091C236.156 56.6788 236.051 56.6269 235.96 56.5562C235.869 56.4855 235.793 56.3974 235.736 56.2971C235.659 56.1644 235.549 56.0542 235.416 55.9776C235.283 55.9009 235.133 55.8605 234.979 55.8603C234.826 55.8601 234.675 55.9002 234.542 55.9766C234.41 56.0529 234.299 56.1629 234.222 56.2954C234.105 56.4961 233.914 56.6423 233.69 56.7019C233.465 56.7615 233.227 56.7295 233.026 56.613C232.825 56.4965 232.679 56.305 232.619 56.0807C232.56 55.8564 232.592 55.6176 232.708 55.4169C232.94 55.0189 233.272 54.6888 233.671 54.4596H233.669Z" fill="black" fill-opacity="0.08"/>
<path fill-rule="evenodd" clip-rule="evenodd" d="M496.787 393.153C496.787 396.17 495.588 399.063 493.455 401.196C491.322 403.33 488.429 404.528 485.412 404.528C482.395 404.528 479.502 403.33 477.368 401.196C475.235 399.063 474.037 396.17 474.037 393.153C474.037 390.136 475.235 387.243 477.368 385.11C479.502 382.977 482.395 381.778 485.412 381.778C488.429 381.778 491.322 382.977 493.455 385.11C495.588 387.243 496.787 390.136 496.787 393.153ZM499.412 393.153C499.412 396.866 497.937 400.427 495.311 403.053C492.686 405.678 489.125 407.153 485.412 407.153C481.699 407.153 478.138 405.678 475.512 403.053C472.887 400.427 471.412 396.866 471.412 393.153C471.412 389.44 472.887 385.879 475.512 383.254C478.138 380.628 481.699 379.153 485.412 379.153C489.125 379.153 492.686 380.628 495.311 383.254C497.937 385.879 499.412 389.44 499.412 393.153ZM480.603 387.378C481.206 387.031 481.921 386.938 482.593 387.118C483.265 387.299 483.837 387.738 484.185 388.341C484.299 388.542 484.329 388.779 484.269 389.002C484.208 389.225 484.062 389.415 483.862 389.531C483.662 389.646 483.424 389.678 483.201 389.619C482.977 389.56 482.786 389.415 482.669 389.216C482.593 389.083 482.482 388.973 482.35 388.896C482.217 388.819 482.066 388.779 481.913 388.779C481.76 388.779 481.609 388.819 481.476 388.895C481.343 388.971 481.233 389.081 481.156 389.214C481.039 389.415 480.848 389.561 480.623 389.62C480.399 389.68 480.16 389.648 479.96 389.532C479.759 389.415 479.613 389.224 479.553 388.999C479.494 388.775 479.525 388.536 479.642 388.335C479.873 387.937 480.204 387.607 480.603 387.378ZM485.412 400.153C487.268 400.153 489.049 399.416 490.361 398.103C491.674 396.79 492.412 395.01 492.412 393.153H478.412C478.412 395.01 479.149 396.79 480.462 398.103C481.775 399.416 483.555 400.153 485.412 400.153ZM487.603 387.378C488.206 387.031 488.921 386.938 489.593 387.118C490.265 387.299 490.837 387.738 491.185 388.341C491.243 388.44 491.281 388.55 491.297 388.665C491.313 388.779 491.306 388.895 491.276 389.007C491.247 389.118 491.195 389.223 491.125 389.315C491.055 389.406 490.968 389.483 490.868 389.541C490.768 389.599 490.657 389.636 490.543 389.651C490.428 389.666 490.312 389.658 490.201 389.628C490.09 389.597 489.985 389.545 489.894 389.475C489.803 389.404 489.727 389.316 489.669 389.216C489.593 389.083 489.482 388.973 489.35 388.896C489.217 388.819 489.066 388.779 488.913 388.779C488.76 388.779 488.609 388.819 488.476 388.895C488.343 388.971 488.233 389.081 488.156 389.214C488.039 389.415 487.848 389.561 487.623 389.62C487.399 389.68 487.16 389.648 486.96 389.532C486.759 389.415 486.613 389.224 486.553 388.999C486.494 388.775 486.525 388.536 486.642 388.335C486.873 387.937 487.205 387.607 487.604 387.378H487.603Z" fill="black" fill-opacity="0.08"/>
<path d="M63.1145 293.833C58.6145 301.333 51.1145 304.333 51.1145 311.833C51.1145 314.833 54.1145 317.833 57.1145 317.833C58.6145 317.833 60.1145 317.833 61.6145 316.333C61.6145 316.333 62.0945 319.333 58.6145 323.833H67.6145C64.6145 319.333 64.6145 316.333 64.6145 316.333C66.1145 317.833 67.6145 317.833 69.1145 317.833C72.1145 317.833 75.1145 314.833 75.1145 311.833C75.1145 304.333 67.6145 301.333 63.1145 293.833Z" fill="black" fill-opacity="0.08"/>
<path d="M443.412 451.398C438.912 458.898 431.412 461.898 431.412 469.398C431.412 472.398 434.412 475.398 437.412 475.398C438.912 475.398 440.412 475.398 441.912 473.898C441.912 473.898 442.392 476.898 438.912 481.398H447.912C444.912 476.898 444.912 473.898 444.912 473.898C446.412 475.398 447.912 475.398 449.412 475.398C452.412 475.398 455.412 472.398 455.412 469.398C455.412 461.898 447.912 458.898 443.412 451.398Z" fill="black" fill-opacity="0.08"/>
<path d="M269.978 208.244C265.478 215.744 257.978 218.744 257.978 226.244C257.978 229.244 260.978 232.244 263.978 232.244C265.478 232.244 266.978 232.244 268.478 230.744C268.478 230.744 268.958 233.744 265.478 238.244H274.478C271.478 233.744 271.478 230.744 271.478 230.744C272.978 232.244 274.478 232.244 275.978 232.244C278.978 232.244 281.978 229.244 281.978 226.244C281.978 218.744 274.478 215.744 269.978 208.244Z" fill="black" fill-opacity="0.08"/>
<path d="M165.468 238.244L161.013 242.744C160.518 243.194 159.858 243.494 159.138 243.494C158.442 243.494 157.774 243.218 157.282 242.726C156.79 242.233 156.513 241.566 156.513 240.869V240.494L158.013 229.424C158.164 227.738 158.941 226.169 160.19 225.025C161.438 223.882 163.07 223.247 164.763 223.244H178.263C181.803 223.244 184.698 225.959 185.013 229.424L186.513 240.494V240.869C186.513 241.566 186.236 242.233 185.744 242.726C185.252 243.218 184.584 243.494 183.888 243.494C183.168 243.494 182.508 243.194 182.013 242.744L177.558 238.244H165.468ZM164.013 226.244V229.244H161.013V230.744H164.013V233.744H165.513V230.744H168.513V229.244H165.513V226.244H164.013ZM178.263 226.244C177.965 226.244 177.679 226.363 177.468 226.574C177.257 226.785 177.138 227.071 177.138 227.369C177.138 227.668 177.257 227.954 177.468 228.165C177.679 228.376 177.965 228.494 178.263 228.494C178.561 228.494 178.848 228.376 179.059 228.165C179.27 227.954 179.388 227.668 179.388 227.369C179.388 227.071 179.27 226.785 179.059 226.574C178.848 226.363 178.561 226.244 178.263 226.244ZM175.638 228.869C175.34 228.869 175.054 228.988 174.843 229.199C174.632 229.41 174.513 229.696 174.513 229.994C174.513 230.293 174.632 230.579 174.843 230.79C175.054 231.001 175.34 231.119 175.638 231.119C175.936 231.119 176.223 231.001 176.434 230.79C176.645 230.579 176.763 230.293 176.763 229.994C176.763 229.696 176.645 229.41 176.434 229.199C176.223 228.988 175.936 228.869 175.638 228.869ZM180.888 228.869C180.59 228.869 180.304 228.988 180.093 229.199C179.882 229.41 179.763 229.696 179.763 229.994C179.763 230.293 179.882 230.579 180.093 230.79C180.304 231.001 180.59 231.119 180.888 231.119C181.186 231.119 181.473 231.001 181.684 230.79C181.895 230.579 182.013 230.293 182.013 229.994C182.013 229.696 181.895 229.41 181.684 229.199C181.473 228.988 181.186 228.869 180.888 228.869ZM178.263 231.494C177.965 231.494 177.679 231.613 177.468 231.824C177.257 232.035 177.138 232.321 177.138 232.619C177.138 232.918 177.257 233.204 177.468 233.415C177.679 233.626 177.965 233.744 178.263 233.744C178.561 233.744 178.848 233.626 179.059 233.415C179.27 233.204 179.388 232.918 179.388 232.619C179.388 232.321 179.27 232.035 179.059 231.824C178.848 231.613 178.561 231.494 178.263 231.494Z" fill="black" fill-opacity="0.08"/>
<path d="M316.696 442.857L312.241 447.357C311.746 447.807 311.086 448.107 310.366 448.107C309.67 448.107 309.003 447.83 308.51 447.338C308.018 446.846 307.741 446.178 307.741 445.482V445.107L309.241 434.037C309.393 432.35 310.169 430.781 311.418 429.638C312.667 428.494 314.298 427.859 315.991 427.857H329.491C333.031 427.857 335.926 430.572 336.241 434.037L337.741 445.107V445.482C337.741 446.178 337.465 446.846 336.973 447.338C336.48 447.83 335.813 448.107 335.116 448.107C334.396 448.107 333.736 447.807 333.241 447.357L328.786 442.857H316.696ZM315.241 430.857V433.857H312.241V435.357H315.241V438.357H316.741V435.357H319.741V433.857H316.741V430.857H315.241ZM329.491 430.857C329.193 430.857 328.907 430.975 328.696 431.186C328.485 431.397 328.366 431.683 328.366 431.982C328.366 432.28 328.485 432.566 328.696 432.777C328.907 432.988 329.193 433.107 329.491 433.107C329.79 433.107 330.076 432.988 330.287 432.777C330.498 432.566 330.616 432.28 330.616 431.982C330.616 431.683 330.498 431.397 330.287 431.186C330.076 430.975 329.79 430.857 329.491 430.857ZM326.866 433.482C326.568 433.482 326.282 433.6 326.071 433.811C325.86 434.022 325.741 434.308 325.741 434.607C325.741 434.905 325.86 435.191 326.071 435.402C326.282 435.613 326.568 435.732 326.866 435.732C327.165 435.732 327.451 435.613 327.662 435.402C327.873 435.191 327.991 434.905 327.991 434.607C327.991 434.308 327.873 434.022 327.662 433.811C327.451 433.6 327.165 433.482 326.866 433.482ZM332.116 433.482C331.818 433.482 331.532 433.6 331.321 433.811C331.11 434.022 330.991 434.308 330.991 434.607C330.991 434.905 331.11 435.191 331.321 435.402C331.532 435.613 331.818 435.732 332.116 435.732C332.415 435.732 332.701 435.613 332.912 435.402C333.123 435.191 333.241 434.905 333.241 434.607C333.241 434.308 333.123 434.022 332.912 433.811C332.701 433.6 332.415 433.482 332.116 433.482ZM329.491 436.107C329.193 436.107 328.907 436.225 328.696 436.436C328.485 436.647 328.366 436.933 328.366 437.232C328.366 437.53 328.485 437.816 328.696 438.027C328.907 438.238 329.193 438.357 329.491 438.357C329.79 438.357 330.076 438.238 330.287 438.027C330.498 437.816 330.616 437.53 330.616 437.232C330.616 436.933 330.498 436.647 330.287 436.436C330.076 436.225 329.79 436.107 329.491 436.107Z" fill="black" fill-opacity="0.08"/>
<path d="M456.367 100.253L451.912 104.753C451.417 105.203 450.757 105.503 450.037 105.503C449.341 105.503 448.673 105.226 448.181 104.734C447.688 104.241 447.412 103.574 447.412 102.878V102.503L448.912 91.4326C449.063 89.746 449.839 88.1769 451.088 87.0335C452.337 85.89 453.968 85.2548 455.662 85.2526H469.162C472.702 85.2526 475.597 87.9676 475.912 91.4326L477.412 102.503V102.878C477.412 103.574 477.135 104.241 476.643 104.734C476.151 105.226 475.483 105.503 474.787 105.503C474.067 105.503 473.407 105.203 472.912 104.753L468.457 100.253H456.367ZM454.912 88.2526V91.2526H451.912V92.7526H454.912V95.7526H456.412V92.7526H459.412V91.2526H456.412V88.2526H454.912ZM469.162 88.2526C468.863 88.2526 468.577 88.3711 468.366 88.5821C468.155 88.793 468.037 89.0792 468.037 89.3776C468.037 89.6759 468.155 89.9621 468.366 90.1731C468.577 90.384 468.863 90.5026 469.162 90.5026C469.46 90.5026 469.746 90.384 469.957 90.1731C470.168 89.9621 470.287 89.6759 470.287 89.3776C470.287 89.0792 470.168 88.793 469.957 88.5821C469.746 88.3711 469.46 88.2526 469.162 88.2526ZM466.537 90.8776C466.238 90.8776 465.952 90.9961 465.741 91.2071C465.53 91.418 465.412 91.7042 465.412 92.0026C465.412 92.3009 465.53 92.5871 465.741 92.7981C465.952 93.009 466.238 93.1276 466.537 93.1276C466.835 93.1276 467.121 93.009 467.332 92.7981C467.543 92.5871 467.662 92.3009 467.662 92.0026C467.662 91.7042 467.543 91.418 467.332 91.2071C467.121 90.9961 466.835 90.8776 466.537 90.8776ZM471.787 90.8776C471.488 90.8776 471.202 90.9961 470.991 91.2071C470.78 91.418 470.662 91.7042 470.662 92.0026C470.662 92.3009 470.78 92.5871 470.991 92.7981C471.202 93.009 471.488 93.1276 471.787 93.1276C472.085 93.1276 472.371 93.009 472.582 92.7981C472.793 92.5871 472.912 92.3009 472.912 92.0026C472.912 91.7042 472.793 91.418 472.582 91.2071C472.371 90.9961 472.085 90.8776 471.787 90.8776ZM469.162 93.5026C468.863 93.5026 468.577 93.6211 468.366 93.8321C468.155 94.043 468.037 94.3292 468.037 94.6276C468.037 94.9259 468.155 95.2121 468.366 95.4231C468.577 95.634 468.863 95.7526 469.162 95.7526C469.46 95.7526 469.746 95.634 469.957 95.4231C470.168 95.2121 470.287 94.9259 470.287 94.6276C470.287 94.3292 470.168 94.043 469.957 93.8321C469.746 93.6211 469.46 93.5026 469.162 93.5026Z" fill="black" fill-opacity="0.08"/>
<path d="M97.6145 200.735C98.4102 200.735 99.1732 201.051 99.7358 201.614C100.298 202.176 100.615 202.939 100.615 203.735C100.615 204.95 99.8645 205.985 98.8595 206.465L96.1145 215.96V223.235H81.1145V215.96L78.3695 206.465C77.3645 205.985 76.6145 204.95 76.6145 203.735C76.6145 202.939 76.9306 202.176 77.4932 201.614C78.0558 201.051 78.8189 200.735 79.6145 200.735C80.4102 200.735 81.1732 201.051 81.7358 201.614C82.2984 202.176 82.6145 202.939 82.6145 203.735C82.6145 204.485 82.3445 205.16 81.8645 205.685L86.0645 210.26L86.8595 204.665C86.1095 204.125 85.6145 203.24 85.6145 202.235C85.6145 201.439 85.9306 200.676 86.4932 200.114C87.0558 199.551 87.8189 199.235 88.6145 199.235C89.4102 199.235 90.1732 199.551 90.7358 200.114C91.2984 200.676 91.6145 201.439 91.6145 202.235C91.6145 203.24 91.1195 204.125 90.3695 204.665L91.1645 210.26L95.3195 205.67C94.8635 205.128 94.6138 204.443 94.6145 203.735C94.6145 202.939 94.9306 202.176 95.4932 201.614C96.0558 201.051 96.8189 200.735 97.6145 200.735ZM78.1145 226.235H99.1145V229.235H78.1145V226.235Z" fill="black" fill-opacity="0.08"/>
<path d="M482.412 239.744C483.207 239.744 483.97 240.06 484.533 240.623C485.096 241.186 485.412 241.949 485.412 242.744C485.412 243.959 484.662 244.994 483.657 245.474L480.912 254.969V262.244H465.912V254.969L463.167 245.474C462.162 244.994 461.412 243.959 461.412 242.744C461.412 241.949 461.728 241.186 462.29 240.623C462.853 240.06 463.616 239.744 464.412 239.744C465.207 239.744 465.97 240.06 466.533 240.623C467.096 241.186 467.412 241.949 467.412 242.744C467.412 243.494 467.142 244.169 466.662 244.694L470.862 249.269L471.657 243.674C470.907 243.134 470.412 242.249 470.412 241.244C470.412 240.449 470.728 239.686 471.29 239.123C471.853 238.56 472.616 238.244 473.412 238.244C474.207 238.244 474.97 238.56 475.533 239.123C476.096 239.686 476.412 240.449 476.412 241.244C476.412 242.249 475.917 243.134 475.167 243.674L475.962 249.269L480.117 244.679C479.661 244.138 479.411 243.452 479.412 242.744C479.412 241.949 479.728 241.186 480.29 240.623C480.853 240.06 481.616 239.744 482.412 239.744ZM462.912 265.244H483.912V268.244H462.912V265.244Z" fill="black" fill-opacity="0.08"/>
<path d="M386.453 17.7346C387.249 17.7346 388.012 18.0507 388.575 18.6133C389.137 19.1759 389.453 19.939 389.453 20.7346C389.453 21.9496 388.703 22.9846 387.698 23.4646L384.953 32.9596V40.2346H369.953V32.9596L367.208 23.4646C366.203 22.9846 365.453 21.9496 365.453 20.7346C365.453 19.939 365.769 19.1759 366.332 18.6133C366.894 18.0507 367.658 17.7346 368.453 17.7346C369.249 17.7346 370.012 18.0507 370.575 18.6133C371.137 19.1759 371.453 19.939 371.453 20.7346C371.453 21.4846 371.183 22.1596 370.703 22.6846L374.903 27.2596L375.698 21.6646C374.948 21.1246 374.453 20.2396 374.453 19.2346C374.453 18.439 374.769 17.6759 375.332 17.1133C375.894 16.5507 376.658 16.2346 377.453 16.2346C378.249 16.2346 379.012 16.5507 379.575 17.1133C380.137 17.6759 380.453 18.439 380.453 19.2346C380.453 20.2396 379.958 21.1246 379.208 21.6646L380.003 27.2596L384.158 22.6696C383.702 22.128 383.452 21.4426 383.453 20.7346C383.453 19.939 383.769 19.1759 384.332 18.6133C384.894 18.0507 385.658 17.7346 386.453 17.7346ZM366.953 43.2346H387.953V46.2346H366.953V43.2346Z" fill="black" fill-opacity="0.08"/>
<path d="M73.7574 419.535H59.4716C57.9002 419.535 56.6145 420.821 56.6145 422.392V445.25C56.6145 446.821 57.9002 448.107 59.4716 448.107H73.7574C75.3288 448.107 76.6145 446.821 76.6145 445.25V422.392C76.6145 420.821 75.3288 419.535 73.7574 419.535ZM69.1859 438.107C68.6145 438.107 68.0431 437.964 67.4716 437.678L68.7574 440.964H64.4716L65.7574 437.678C65.1859 437.964 64.6145 438.107 64.0431 438.107C62.3288 438.107 60.9002 436.678 60.9002 434.964C60.9002 432.821 62.9002 431.107 65.7574 428.392L66.6145 427.678L67.4716 428.392C70.3288 431.107 72.3288 432.821 72.3288 434.964C72.3288 436.821 70.9002 438.107 69.1859 438.107Z" fill="black" fill-opacity="0.08"/>
<path d="M112.786 27.8505H98.5002C96.9288 27.8505 95.6431 29.1362 95.6431 30.7076V53.5648C95.6431 55.1362 96.9288 56.4219 98.5002 56.4219H112.786C114.357 56.4219 115.643 55.1362 115.643 53.5648V30.7076C115.643 29.1362 114.357 27.8505 112.786 27.8505ZM108.214 46.4219C107.643 46.4219 107.072 46.279 106.5 45.9933L107.786 49.279H103.5L104.786 45.9933C104.214 46.279 103.643 46.4219 103.072 46.4219C101.357 46.4219 99.9288 44.9933 99.9288 43.279C99.9288 41.1362 101.929 39.4219 104.786 36.7076L105.643 35.9933L106.5 36.7076C109.357 39.4219 111.357 41.1362 111.357 43.279C111.357 45.1362 109.929 46.4219 108.214 46.4219Z" fill="black" fill-opacity="0.08"/>
<path d="M344.005 279.547H329.719C328.148 279.547 326.862 280.833 326.862 282.405V305.262C326.862 306.833 328.148 308.119 329.719 308.119H344.005C345.576 308.119 346.862 306.833 346.862 305.262V282.405C346.862 280.833 345.576 279.547 344.005 279.547ZM339.433 298.119C338.862 298.119 338.29 297.976 337.719 297.69L339.005 300.976H334.719L336.005 297.69C335.433 297.976 334.862 298.119 334.29 298.119C332.576 298.119 331.148 296.69 331.148 294.976C331.148 292.833 333.148 291.119 336.005 288.405L336.862 287.69L337.719 288.405C340.576 291.119 342.576 292.833 342.576 294.976C342.576 296.833 341.148 298.119 339.433 298.119Z" fill="black" fill-opacity="0.08"/>
<path d="M259.756 354.153H279.2C279.937 354.153 280.643 354.446 281.164 354.967C281.685 355.488 281.978 356.194 281.978 356.931V376.375C281.978 377.112 281.685 377.819 281.164 378.34C280.643 378.86 279.937 379.153 279.2 379.153H259.756C259.019 379.153 258.312 378.86 257.792 378.34C257.271 377.819 256.978 377.112 256.978 376.375V356.931C256.978 356.194 257.271 355.488 257.792 354.967C258.312 354.446 259.019 354.153 259.756 354.153ZM262.534 356.931C261.797 356.931 261.09 357.224 260.569 357.745C260.048 358.265 259.756 358.972 259.756 359.709C259.756 360.445 260.048 361.152 260.569 361.673C261.09 362.194 261.797 362.486 262.534 362.486C263.27 362.486 263.977 362.194 264.498 361.673C265.019 361.152 265.311 360.445 265.311 359.709C265.311 358.972 265.019 358.265 264.498 357.745C263.977 357.224 263.27 356.931 262.534 356.931ZM276.422 370.82C275.686 370.82 274.979 371.112 274.458 371.633C273.937 372.154 273.645 372.861 273.645 373.598C273.645 374.334 273.937 375.041 274.458 375.562C274.979 376.083 275.686 376.375 276.422 376.375C277.159 376.375 277.866 376.083 278.387 375.562C278.908 375.041 279.2 374.334 279.2 373.598C279.2 372.861 278.908 372.154 278.387 371.633C277.866 371.112 277.159 370.82 276.422 370.82ZM276.422 363.875C275.686 363.875 274.979 364.168 274.458 364.689C273.937 365.21 273.645 365.916 273.645 366.653C273.645 367.39 273.937 368.096 274.458 368.617C274.979 369.138 275.686 369.431 276.422 369.431C277.159 369.431 277.866 369.138 278.387 368.617C278.908 368.096 279.2 367.39 279.2 366.653C279.2 365.916 278.908 365.21 278.387 364.689C277.866 364.168 277.159 363.875 276.422 363.875ZM276.422 356.931C275.686 356.931 274.979 357.224 274.458 357.745C273.937 358.265 273.645 358.972 273.645 359.709C273.645 360.445 273.937 361.152 274.458 361.673C274.979 362.194 275.686 362.486 276.422 362.486C277.159 362.486 277.866 362.194 278.387 361.673C278.908 361.152 279.2 360.445 279.2 359.709C279.2 358.972 278.908 358.265 278.387 357.745C277.866 357.224 277.159 356.931 276.422 356.931ZM262.534 363.875C261.797 363.875 261.09 364.168 260.569 364.689C260.048 365.21 259.756 365.916 259.756 366.653C259.756 367.39 260.048 368.096 260.569 368.617C261.09 369.138 261.797 369.431 262.534 369.431C263.27 369.431 263.977 369.138 264.498 368.617C265.019 368.096 265.311 367.39 265.311 366.653C265.311 365.916 265.019 365.21 264.498 364.689C263.977 364.168 263.27 363.875 262.534 363.875ZM262.534 370.82C261.797 370.82 261.09 371.112 260.569 371.633C260.048 372.154 259.756 372.861 259.756 373.598C259.756 374.334 260.048 375.041 260.569 375.562C261.09 376.083 261.797 376.375 262.534 376.375C263.27 376.375 263.977 376.083 264.498 375.562C265.019 375.041 265.311 374.334 265.311 373.598C265.311 372.861 265.019 372.154 264.498 371.633C263.977 371.112 263.27 370.82 262.534 370.82Z" fill="black" fill-opacity="0.08"/>
<path d="M367.231 157.054H386.675C387.412 157.054 388.119 157.346 388.64 157.867C389.161 158.388 389.453 159.095 389.453 159.832V179.276C389.453 180.013 389.161 180.719 388.64 181.24C388.119 181.761 387.412 182.054 386.675 182.054H367.231C366.494 182.054 365.788 181.761 365.267 181.24C364.746 180.719 364.453 180.013 364.453 179.276V159.832C364.453 159.095 364.746 158.388 365.267 157.867C365.788 157.346 366.494 157.054 367.231 157.054ZM370.009 159.832C369.272 159.832 368.565 160.124 368.045 160.645C367.524 161.166 367.231 161.873 367.231 162.609C367.231 163.346 367.524 164.053 368.045 164.574C368.565 165.094 369.272 165.387 370.009 165.387C370.745 165.387 371.452 165.094 371.973 164.574C372.494 164.053 372.787 163.346 372.787 162.609C372.787 161.873 372.494 161.166 371.973 160.645C371.452 160.124 370.745 159.832 370.009 159.832ZM383.898 173.72C383.161 173.72 382.454 174.013 381.933 174.534C381.413 175.055 381.12 175.762 381.12 176.498C381.12 177.235 381.413 177.941 381.933 178.462C382.454 178.983 383.161 179.276 383.898 179.276C384.634 179.276 385.341 178.983 385.862 178.462C386.383 177.941 386.675 177.235 386.675 176.498C386.675 175.762 386.383 175.055 385.862 174.534C385.341 174.013 384.634 173.72 383.898 173.72ZM383.898 166.776C383.161 166.776 382.454 167.069 381.933 167.59C381.413 168.111 381.12 168.817 381.12 169.554C381.12 170.29 381.413 170.997 381.933 171.518C382.454 172.039 383.161 172.332 383.898 172.332C384.634 172.332 385.341 172.039 385.862 171.518C386.383 170.997 386.675 170.29 386.675 169.554C386.675 168.817 386.383 168.111 385.862 167.59C385.341 167.069 384.634 166.776 383.898 166.776ZM383.898 159.832C383.161 159.832 382.454 160.124 381.933 160.645C381.413 161.166 381.12 161.873 381.12 162.609C381.12 163.346 381.413 164.053 381.933 164.574C382.454 165.094 383.161 165.387 383.898 165.387C384.634 165.387 385.341 165.094 385.862 164.574C386.383 164.053 386.675 163.346 386.675 162.609C386.675 161.873 386.383 161.166 385.862 160.645C385.341 160.124 384.634 159.832 383.898 159.832ZM370.009 166.776C369.272 166.776 368.565 167.069 368.045 167.59C367.524 168.111 367.231 168.817 367.231 169.554C367.231 170.29 367.524 170.997 368.045 171.518C368.565 172.039 369.272 172.332 370.009 172.332C370.745 172.332 371.452 172.039 371.973 171.518C372.494 170.997 372.787 170.29 372.787 169.554C372.787 168.817 372.494 168.111 371.973 167.59C371.452 167.069 370.745 166.776 370.009 166.776ZM370.009 173.72C369.272 173.72 368.565 174.013 368.045 174.534C367.524 175.055 367.231 175.762 367.231 176.498C367.231 177.235 367.524 177.941 368.045 178.462C368.565 178.983 369.272 179.276 370.009 179.276C370.745 179.276 371.452 178.983 371.973 178.462C372.494 177.941 372.787 177.235 372.787 176.498C372.787 175.762 372.494 175.055 371.973 174.534C371.452 174.013 370.745 173.72 370.009 173.72Z" fill="black" fill-opacity="0.08"/>
</svg>
