<svg width="21" height="19" viewBox="0 0 21 19" fill="none" xmlns="http://www.w3.org/2000/svg">
<path d="M2.44263 2.91772H5.44263L7.44263 0.917725H13.4426L15.4426 2.91772H18.4426C18.9731 2.91772 19.4818 3.12844 19.8568 3.50351C20.2319 3.87858 20.4426 4.38729 20.4426 4.91772V16.9177C20.4426 17.4482 20.2319 17.9569 19.8568 18.3319C19.4818 18.707 18.9731 18.9177 18.4426 18.9177H2.44263C1.91219 18.9177 1.40349 18.707 1.02841 18.3319C0.653341 17.9569 0.442627 17.4482 0.442627 16.9177V4.91772C0.442627 4.38729 0.653341 3.87858 1.02841 3.50351C1.40349 3.12844 1.91219 2.91772 2.44263 2.91772ZM10.4426 5.91772C9.11654 5.91772 7.84478 6.44451 6.90709 7.38219C5.96941 8.31987 5.44263 9.59164 5.44263 10.9177C5.44263 12.2438 5.96941 13.5156 6.90709 14.4533C7.84478 15.3909 9.11654 15.9177 10.4426 15.9177C11.7687 15.9177 13.0405 15.3909 13.9782 14.4533C14.9158 13.5156 15.4426 12.2438 15.4426 10.9177C15.4426 9.59164 14.9158 8.31987 13.9782 7.38219C13.0405 6.44451 11.7687 5.91772 10.4426 5.91772ZM10.4426 7.91772C11.2383 7.91772 12.0013 8.23379 12.5639 8.7964C13.1266 9.35901 13.4426 10.1221 13.4426 10.9177C13.4426 11.7134 13.1266 12.4764 12.5639 13.039C12.0013 13.6017 11.2383 13.9177 10.4426 13.9177C9.64698 13.9177 8.88391 13.6017 8.32131 13.039C7.7587 12.4764 7.44263 11.7134 7.44263 10.9177C7.44263 10.1221 7.7587 9.35901 8.32131 8.7964C8.88391 8.23379 9.64698 7.91772 10.4426 7.91772Z" fill="black"/>
</svg>
