<svg width="141" height="187" viewBox="0 0 141 187" fill="none" xmlns="http://www.w3.org/2000/svg">
<path fill-rule="evenodd" clip-rule="evenodd" d="M34.6238 10.8957L28.4872 3L20.5916 9.13664L26.7282 17.0324L34.6238 10.8957ZM32.2852 10.6025L28.194 5.33872L22.9302 9.4298L27.0214 14.6936L32.2852 10.6025Z" fill="white" fill-opacity="0.05"/>
<path fill-rule="evenodd" clip-rule="evenodd" d="M54.0861 12.6509L57.2511 3.16502L47.7651 0L44.6001 9.4859L54.0861 12.6509ZM53.0325 10.5424L55.1425 4.2185L48.8187 2.10848L46.7085 8.43242L53.0325 10.5424Z" fill="white" fill-opacity="0.05"/>
<path fill-rule="evenodd" clip-rule="evenodd" d="M14.5247 35.2286L20.6287 27.3078L12.7078 21.2036L6.60376 29.1246L14.5247 35.2286ZM14.2218 32.8912L18.2913 27.6106L13.0106 23.5412L8.94126 28.8218L14.2218 32.8912Z" fill="white" fill-opacity="0.05"/>
<path fill-rule="evenodd" clip-rule="evenodd" d="M13.272 12.9705L11.3705 3.15295L1.55298 5.05437L3.45442 14.872L13.272 12.9705ZM11.3188 11.6512L10.0512 5.10611L3.50614 6.37373L4.77376 12.9188L11.3188 11.6512Z" fill="white" fill-opacity="0.05"/>
<path fill-rule="evenodd" clip-rule="evenodd" d="M40.3864 36.8944L38.6944 27.0386L28.8386 28.7306L30.5306 38.5864L40.3864 36.8944ZM38.4618 35.5338L37.3338 28.9632L30.7632 30.0912L31.8912 36.6618L38.4618 35.5338Z" fill="white" fill-opacity="0.05"/>
<path fill-rule="evenodd" clip-rule="evenodd" d="M82.9479 15.2558L81.2559 5.40002L71.4001 7.092L73.0921 16.9478L82.9479 15.2558ZM81.0233 13.8952L79.8953 7.32466L73.3247 8.45264L74.4527 15.0232L81.0233 13.8952Z" fill="white" fill-opacity="0.05"/>
<path fill-rule="evenodd" clip-rule="evenodd" d="M26.2372 85.447L29.2468 75.9106L19.7106 72.901L16.7009 82.4372L26.2372 85.447ZM25.1494 83.356L27.156 76.9984L20.7984 74.992L18.792 81.3494L25.1494 83.356Z" fill="white" fill-opacity="0.05"/>
<path fill-rule="evenodd" clip-rule="evenodd" d="M19.5874 63.8263L29.4264 62.039L27.6391 52.2L17.8 53.9874L19.5874 63.8263ZM20.9294 61.8885L27.4886 60.6969L26.297 54.1378L19.7378 55.3294L20.9294 61.8885Z" fill="white" fill-opacity="0.05"/>
<path fill-rule="evenodd" clip-rule="evenodd" d="M0 57.3482L9.94822 58.3644L10.9644 48.4162L1.0162 47.4L0 57.3482ZM1.8274 55.8596L8.45956 56.537L9.13702 49.9048L2.50486 49.2274L1.8274 55.8596Z" fill="white" fill-opacity="0.05"/>
<path fill-rule="evenodd" clip-rule="evenodd" d="M2.3977 89.106L12.106 86.7084L9.7083 77L0 79.3978L2.3977 89.106ZM3.61612 87.0884L10.0883 85.4898L8.48986 79.0176L2.01766 80.6162L3.61612 87.0884Z" fill="white" fill-opacity="0.05"/>
<path fill-rule="evenodd" clip-rule="evenodd" d="M59.5818 50.5308L66.9308 43.749L60.149 36.4L52.8 43.1818L59.5818 50.5308ZM59.6764 48.1756L64.5756 43.6544L60.0544 38.7552L55.1552 43.2764L59.6764 48.1756Z" fill="white" fill-opacity="0.05"/>
<path fill-rule="evenodd" clip-rule="evenodd" d="M49.4001 28.148L59.3481 29.1664L60.3665 19.2182L50.4183 18.2L49.4001 28.148ZM51.2279 26.6598L57.8599 27.3385L58.5387 20.7066L51.9067 20.0278L51.2279 26.6598Z" fill="white" fill-opacity="0.05"/>
<path fill-rule="evenodd" clip-rule="evenodd" d="M80.0523 45.1636L88.5635 39.914L83.3139 31.4028L74.8027 36.6524L80.0523 45.1636ZM80.5959 42.8702L86.2701 39.3704L82.7703 33.6962L77.0961 37.196L80.5959 42.8702Z" fill="white" fill-opacity="0.05"/>
<path fill-rule="evenodd" clip-rule="evenodd" d="M49.7463 67.5938L50.3939 57.6148L40.4149 56.9672L39.7673 66.9462L49.7463 67.5938ZM48.1911 65.8226L48.6227 59.17L41.9701 58.7382L41.5383 65.391L48.1911 65.8226Z" fill="white" fill-opacity="0.05"/>
<path fill-rule="evenodd" clip-rule="evenodd" d="M74.8566 61.8044L68.6044 54L60.8 60.2522L67.0522 68.0566L74.8566 61.8044ZM72.5141 61.5458L68.3458 56.3428L63.1428 60.511L67.311 65.714L72.5141 61.5458Z" fill="white" fill-opacity="0.05"/>
<path fill-rule="evenodd" clip-rule="evenodd" d="M93.2421 71.6354L91.4355 61.8L81.6001 63.6065L83.4065 73.442L93.2421 71.6354ZM91.3017 70.2974L90.0975 63.7404L83.5405 64.9446L84.7447 71.5016L91.3017 70.2974Z" fill="white" fill-opacity="0.05"/>
<path fill-rule="evenodd" clip-rule="evenodd" d="M85.6583 92.238L89.4381 82.9797L80.1799 79.2L76.4001 88.4581L85.6583 92.238ZM84.7451 90.065L87.2651 83.8927L81.0929 81.3729L78.5731 87.545L84.7451 90.065Z" fill="white" fill-opacity="0.05"/>
<path fill-rule="evenodd" clip-rule="evenodd" d="M60.2744 86.0192L57.0194 76.5638L47.564 79.8188L50.819 89.2742L60.2744 86.0192ZM58.156 84.9858L55.986 78.6822L49.6824 80.8522L51.8524 87.1558L58.156 84.9858Z" fill="white" fill-opacity="0.05"/>
<path fill-rule="evenodd" clip-rule="evenodd" d="M35.6238 102.896L29.4872 95L21.5916 101.137L27.7282 109.032L35.6238 102.896ZM33.2852 102.602L29.194 97.3387L23.9302 101.43L28.0214 106.694L33.2852 102.602Z" fill="white" fill-opacity="0.05"/>
<path fill-rule="evenodd" clip-rule="evenodd" d="M55.0861 104.651L58.2511 95.165L48.7651 92L45.6001 101.486L55.0861 104.651ZM54.0325 102.542L56.1425 96.2185L49.8187 94.1085L47.7085 100.432L54.0325 102.542Z" fill="white" fill-opacity="0.05"/>
<path fill-rule="evenodd" clip-rule="evenodd" d="M15.5247 127.229L21.6287 119.308L13.7078 113.204L7.60376 121.125L15.5247 127.229ZM15.2218 124.891L19.2913 119.611L14.0106 115.541L9.94126 120.822L15.2218 124.891Z" fill="white" fill-opacity="0.05"/>
<path fill-rule="evenodd" clip-rule="evenodd" d="M14.272 104.971L12.3705 95.153L2.55298 97.0544L4.45442 106.872L14.272 104.971ZM12.3188 103.651L11.0512 97.1061L4.50614 98.3737L5.77376 104.919L12.3188 103.651Z" fill="white" fill-opacity="0.05"/>
<path fill-rule="evenodd" clip-rule="evenodd" d="M41.3864 128.894L39.6944 119.039L29.8386 120.731L31.5306 130.586L41.3864 128.894ZM39.4618 127.534L38.3338 120.963L31.7632 122.091L32.8912 128.662L39.4618 127.534Z" fill="white" fill-opacity="0.05"/>
<path fill-rule="evenodd" clip-rule="evenodd" d="M83.9479 107.256L82.2559 97.4L72.4001 99.092L74.0921 108.948L83.9479 107.256ZM82.0233 105.895L80.8953 99.3247L74.3247 100.453L75.4527 107.023L82.0233 105.895Z" fill="white" fill-opacity="0.05"/>
<path fill-rule="evenodd" clip-rule="evenodd" d="M27.2372 177.447L30.2468 167.911L20.7106 164.901L17.7009 174.437L27.2372 177.447ZM26.1494 175.356L28.156 168.998L21.7984 166.992L19.792 173.349L26.1494 175.356Z" fill="white" fill-opacity="0.05"/>
<path fill-rule="evenodd" clip-rule="evenodd" d="M20.5874 155.826L30.4264 154.039L28.6391 144.2L18.8 145.987L20.5874 155.826ZM21.9294 153.889L28.4886 152.697L27.297 146.138L20.7378 147.329L21.9294 153.889Z" fill="white" fill-opacity="0.05"/>
<path fill-rule="evenodd" clip-rule="evenodd" d="M1 149.348L10.9482 150.364L11.9644 140.416L2.0162 139.4L1 149.348ZM2.8274 147.86L9.45956 148.537L10.137 141.905L3.50486 141.227L2.8274 147.86Z" fill="white" fill-opacity="0.05"/>
<path fill-rule="evenodd" clip-rule="evenodd" d="M3.3977 181.106L13.106 178.708L10.7083 169L1 171.398L3.3977 181.106ZM4.61612 179.088L11.0883 177.49L9.48986 171.018L3.01766 172.616L4.61612 179.088Z" fill="white" fill-opacity="0.05"/>
<path fill-rule="evenodd" clip-rule="evenodd" d="M60.5818 142.531L67.9308 135.749L61.149 128.4L53.8 135.182L60.5818 142.531ZM60.6764 140.176L65.5756 135.654L61.0544 130.755L56.1552 135.276L60.6764 140.176Z" fill="white" fill-opacity="0.05"/>
<path fill-rule="evenodd" clip-rule="evenodd" d="M50.4001 120.148L60.3481 121.166L61.3665 111.218L51.4183 110.2L50.4001 120.148ZM52.2279 118.66L58.8599 119.339L59.5387 112.707L52.9067 112.028L52.2279 118.66Z" fill="white" fill-opacity="0.05"/>
<path fill-rule="evenodd" clip-rule="evenodd" d="M81.0523 137.164L89.5635 131.914L84.3139 123.403L75.8027 128.652L81.0523 137.164ZM81.5959 134.87L87.2701 131.37L83.7703 125.696L78.0961 129.196L81.5959 134.87Z" fill="white" fill-opacity="0.05"/>
<path fill-rule="evenodd" clip-rule="evenodd" d="M50.7463 159.594L51.3939 149.615L41.4149 148.967L40.7673 158.946L50.7463 159.594ZM49.1911 157.823L49.6227 151.17L42.9701 150.738L42.5383 157.391L49.1911 157.823Z" fill="white" fill-opacity="0.05"/>
<path fill-rule="evenodd" clip-rule="evenodd" d="M75.8566 153.804L69.6044 146L61.8 152.252L68.0522 160.057L75.8566 153.804ZM73.5141 153.546L69.3458 148.343L64.1428 152.511L68.311 157.714L73.5141 153.546Z" fill="white" fill-opacity="0.05"/>
<path fill-rule="evenodd" clip-rule="evenodd" d="M94.2421 163.635L92.4355 153.8L82.6001 155.606L84.4065 165.442L94.2421 163.635ZM92.3017 162.297L91.0975 155.74L84.5405 156.945L85.7447 163.502L92.3017 162.297Z" fill="white" fill-opacity="0.05"/>
<path fill-rule="evenodd" clip-rule="evenodd" d="M86.6583 184.238L90.4381 174.98L81.1799 171.2L77.4001 180.458L86.6583 184.238ZM85.7451 182.065L88.2651 175.893L82.0929 173.373L79.5731 179.545L85.7451 182.065Z" fill="white" fill-opacity="0.05"/>
<path fill-rule="evenodd" clip-rule="evenodd" d="M61.2744 178.019L58.0194 168.564L48.564 171.819L51.819 181.274L61.2744 178.019ZM59.156 176.986L56.986 170.682L50.6824 172.852L52.8524 179.156L59.156 176.986Z" fill="white" fill-opacity="0.05"/>
<path fill-rule="evenodd" clip-rule="evenodd" d="M128.624 11.8957L122.487 4L114.592 10.1366L120.728 18.0324L128.624 11.8957ZM126.285 11.6025L122.194 6.33872L116.93 10.4298L121.021 15.6936L126.285 11.6025Z" fill="white" fill-opacity="0.05"/>
<path fill-rule="evenodd" clip-rule="evenodd" d="M108.525 36.2286L114.629 28.3078L106.708 22.2036L100.604 30.1246L108.525 36.2286ZM108.222 33.8912L112.291 28.6106L107.011 24.5412L102.941 29.8218L108.222 33.8912Z" fill="white" fill-opacity="0.05"/>
<path fill-rule="evenodd" clip-rule="evenodd" d="M107.272 13.9705L105.371 4.15295L95.553 6.05437L97.4544 15.872L107.272 13.9705ZM105.319 12.6512L104.051 6.10611L97.5061 7.37373L98.7738 13.9188L105.319 12.6512Z" fill="white" fill-opacity="0.05"/>
<path fill-rule="evenodd" clip-rule="evenodd" d="M134.386 37.8944L132.694 28.0386L122.839 29.7306L124.531 39.5864L134.386 37.8944ZM132.462 36.5338L131.334 29.9632L124.763 31.0912L125.891 37.6618L132.462 36.5338Z" fill="white" fill-opacity="0.05"/>
<path fill-rule="evenodd" clip-rule="evenodd" d="M120.237 86.447L123.247 76.9106L113.711 73.901L110.701 83.4372L120.237 86.447ZM119.149 84.356L121.156 77.9984L114.798 75.992L112.792 82.3494L119.149 84.356Z" fill="white" fill-opacity="0.05"/>
<path fill-rule="evenodd" clip-rule="evenodd" d="M113.587 64.8263L123.426 63.039L121.639 53.2L111.8 54.9874L113.587 64.8263ZM114.929 62.8885L121.489 61.6969L120.297 55.1378L113.738 56.3294L114.929 62.8885Z" fill="white" fill-opacity="0.05"/>
<path fill-rule="evenodd" clip-rule="evenodd" d="M94 58.3482L103.948 59.3644L104.964 49.4162L95.0162 48.4L94 58.3482ZM95.8274 56.8596L102.46 57.537L103.137 50.9048L96.5049 50.2274L95.8274 56.8596Z" fill="white" fill-opacity="0.05"/>
<path fill-rule="evenodd" clip-rule="evenodd" d="M96.3977 90.106L106.106 87.7084L103.708 78L94 80.3978L96.3977 90.106ZM97.6161 88.0884L104.088 86.4898L102.49 80.0176L96.0177 81.6162L97.6161 88.0884Z" fill="white" fill-opacity="0.05"/>
<path fill-rule="evenodd" clip-rule="evenodd" d="M134.624 107.896L128.487 100L120.592 106.137L126.728 114.032L134.624 107.896ZM132.285 107.602L128.194 102.339L122.93 106.43L127.021 111.694L132.285 107.602Z" fill="white" fill-opacity="0.05"/>
<path fill-rule="evenodd" clip-rule="evenodd" d="M114.525 132.229L120.629 124.308L112.708 118.204L106.604 126.125L114.525 132.229ZM114.222 129.891L118.291 124.611L113.011 120.541L108.941 125.822L114.222 129.891Z" fill="white" fill-opacity="0.05"/>
<path fill-rule="evenodd" clip-rule="evenodd" d="M113.272 109.971L111.371 100.153L101.553 102.054L103.454 111.872L113.272 109.971ZM111.319 108.651L110.051 102.106L103.506 103.374L104.774 109.919L111.319 108.651Z" fill="white" fill-opacity="0.05"/>
<path fill-rule="evenodd" clip-rule="evenodd" d="M140.386 133.894L138.694 124.039L128.839 125.731L130.531 135.586L140.386 133.894ZM138.462 132.534L137.334 125.963L130.763 127.091L131.891 133.662L138.462 132.534Z" fill="white" fill-opacity="0.05"/>
<path fill-rule="evenodd" clip-rule="evenodd" d="M126.237 182.447L129.247 172.911L119.711 169.901L116.701 179.437L126.237 182.447ZM125.149 180.356L127.156 173.998L120.798 171.992L118.792 178.349L125.149 180.356Z" fill="white" fill-opacity="0.05"/>
<path fill-rule="evenodd" clip-rule="evenodd" d="M119.587 160.826L129.426 159.039L127.639 149.2L117.8 150.987L119.587 160.826ZM120.929 158.889L127.489 157.697L126.297 151.138L119.738 152.329L120.929 158.889Z" fill="white" fill-opacity="0.05"/>
<path fill-rule="evenodd" clip-rule="evenodd" d="M100 154.348L109.948 155.364L110.964 145.416L101.016 144.4L100 154.348ZM101.827 152.86L108.46 153.537L109.137 146.905L102.505 146.227L101.827 152.86Z" fill="white" fill-opacity="0.05"/>
<path fill-rule="evenodd" clip-rule="evenodd" d="M102.398 186.106L112.106 183.708L109.708 174L100 176.398L102.398 186.106ZM103.616 184.088L110.088 182.49L108.49 176.018L102.018 177.616L103.616 184.088Z" fill="white" fill-opacity="0.05"/>
</svg>
