<svg width="500" height="500" viewBox="0 0 500 500" fill="none" xmlns="http://www.w3.org/2000/svg">
<rect width="500" height="500" fill="#9D4EDD"/>
<path fill-rule="evenodd" clip-rule="evenodd" d="M189.118 69.4784L158.435 30L118.957 60.6832L149.64 100.162L189.118 69.4784ZM177.425 68.0125L156.969 41.6936L130.65 62.149L151.106 88.468L177.425 68.0125Z" fill="white" fill-opacity="0.05"/>
<path fill-rule="evenodd" clip-rule="evenodd" d="M286.43 78.2547L302.255 30.8251L254.825 15L239 62.4295L286.43 78.2547ZM281.162 67.7122L291.712 36.0925L260.093 25.5424L249.542 57.1621L281.162 67.7122Z" fill="white" fill-opacity="0.05"/>
<path fill-rule="evenodd" clip-rule="evenodd" d="M88.6229 191.143L119.143 151.539L79.5388 121.018L49.0184 160.623L88.6229 191.143ZM87.1088 179.456L107.456 153.053L81.0528 132.706L60.7059 159.109L87.1088 179.456Z" fill="white" fill-opacity="0.05"/>
<path fill-rule="evenodd" clip-rule="evenodd" d="M82.3599 79.8527L72.8527 30.7649L23.7649 40.272L33.2721 89.3599L82.3599 79.8527ZM72.5941 73.2559L66.2559 40.5307L33.5307 46.8688L39.8688 79.594L72.5941 73.2559Z" fill="white" fill-opacity="0.05"/>
<path fill-rule="evenodd" clip-rule="evenodd" d="M217.932 199.472L209.472 150.193L160.193 158.653L168.653 207.932L217.932 199.472ZM208.309 192.669L202.669 159.816L169.816 165.456L175.456 198.309L208.309 192.669Z" fill="white" fill-opacity="0.05"/>
<path fill-rule="evenodd" clip-rule="evenodd" d="M430.739 91.2791L422.279 42L373 50.4599L381.46 99.739L430.739 91.2791ZM421.116 84.4759L415.476 51.6232L382.623 57.2631L388.263 90.1159L421.116 84.4759Z" fill="white" fill-opacity="0.05"/>
<path fill-rule="evenodd" clip-rule="evenodd" d="M147.186 442.235L162.234 394.553L114.553 379.505L99.5046 427.186L147.186 442.235ZM141.747 431.78L151.78 399.992L119.992 389.96L109.96 421.747L141.747 431.78Z" fill="white" fill-opacity="0.05"/>
<path fill-rule="evenodd" clip-rule="evenodd" d="M113.937 334.132L163.132 325.195L154.195 276L105 284.937L113.937 334.132ZM120.647 324.443L153.443 318.485L147.485 285.689L114.689 291.647L120.647 324.443Z" fill="white" fill-opacity="0.05"/>
<path fill-rule="evenodd" clip-rule="evenodd" d="M16 301.741L65.7411 306.822L70.8221 257.081L21.081 252L16 301.741ZM25.137 294.298L58.2978 297.685L61.6851 264.524L28.5243 261.137L25.137 294.298Z" fill="white" fill-opacity="0.05"/>
<path fill-rule="evenodd" clip-rule="evenodd" d="M27.9885 460.53L76.53 448.542L64.5415 400L16 411.989L27.9885 460.53ZM34.0806 450.442L66.4416 442.449L58.4493 410.088L26.0883 418.081L34.0806 450.442Z" fill="white" fill-opacity="0.05"/>
<path fill-rule="evenodd" clip-rule="evenodd" d="M313.909 267.654L350.654 233.745L316.745 197L280 230.909L313.909 267.654ZM314.382 255.878L338.878 233.272L316.272 208.776L291.776 231.382L314.382 255.878Z" fill="white" fill-opacity="0.05"/>
<path fill-rule="evenodd" clip-rule="evenodd" d="M263 155.74L312.74 160.832L317.832 111.091L268.091 106L263 155.74ZM272.139 148.299L305.299 151.693L308.693 118.533L275.533 115.139L272.139 148.299Z" fill="white" fill-opacity="0.05"/>
<path fill-rule="evenodd" clip-rule="evenodd" d="M416.262 240.818L458.818 214.57L432.57 172.014L390.014 198.262L416.262 240.818ZM418.98 229.351L447.351 211.852L429.852 183.481L401.481 200.98L418.98 229.351Z" fill="white" fill-opacity="0.05"/>
<path fill-rule="evenodd" clip-rule="evenodd" d="M264.731 352.969L267.969 303.074L218.074 299.836L214.836 349.731L264.731 352.969ZM256.955 344.113L259.113 310.85L225.85 308.691L223.691 341.955L256.955 344.113Z" fill="white" fill-opacity="0.05"/>
<path fill-rule="evenodd" clip-rule="evenodd" d="M390.283 324.022L359.022 285L320 316.261L351.261 355.283L390.283 324.022ZM378.57 322.729L357.729 296.714L331.714 317.555L352.555 343.57L378.57 322.729Z" fill="white" fill-opacity="0.05"/>
<path fill-rule="evenodd" clip-rule="evenodd" d="M482.21 373.177L473.177 324L424 333.032L433.032 382.21L482.21 373.177ZM472.508 366.487L466.487 333.702L433.702 339.723L439.723 372.508L472.508 366.487Z" fill="white" fill-opacity="0.05"/>
<path fill-rule="evenodd" clip-rule="evenodd" d="M444.291 476.19L463.19 429.899L416.899 411L398 457.291L444.291 476.19ZM439.725 465.325L452.325 434.464L421.464 421.865L408.865 452.725L439.725 465.325Z" fill="white" fill-opacity="0.05"/>
<path fill-rule="evenodd" clip-rule="evenodd" d="M317.371 445.096L301.096 397.819L253.819 414.094L270.094 461.371L317.371 445.096ZM306.779 439.929L295.929 408.411L264.411 419.261L275.261 450.779L306.779 439.929Z" fill="white" fill-opacity="0.05"/>
</svg>
