<svg width="15" height="20" viewBox="0 0 15 20" fill="none" xmlns="http://www.w3.org/2000/svg">
<path d="M7.8125 0.417725C8.60815 0.417725 9.37121 0.733795 9.93382 1.2964C10.4964 1.85901 10.8125 2.62208 10.8125 3.41772V9.41772C10.8125 10.2134 10.4964 10.9764 9.93382 11.539C9.37121 12.1017 8.60815 12.4177 7.8125 12.4177C7.01685 12.4177 6.25379 12.1017 5.69118 11.539C5.12857 10.9764 4.8125 10.2134 4.8125 9.41772V3.41772C4.8125 2.62208 5.12857 1.85901 5.69118 1.2964C6.25379 0.733795 7.01685 0.417725 7.8125 0.417725ZM14.8125 9.41772C14.8125 12.9477 12.2025 15.8577 8.8125 16.3477V19.4177H6.8125V16.3477C3.4225 15.8577 0.8125 12.9477 0.8125 9.41772H2.8125C2.8125 10.7438 3.33928 12.0156 4.27697 12.9533C5.21465 13.8909 6.48642 14.4177 7.8125 14.4177C9.13858 14.4177 10.4104 13.8909 11.348 12.9533C12.2857 12.0156 12.8125 10.7438 12.8125 9.41772H14.8125Z" fill="black"/>
</svg>
